<?xml version="1.0" encoding="utf-8"?>
<svg width="320px" height="320px" viewBox="0 0 320 320" version="1.1" xmlns:xlink="http://www.w3.org/1999/xlink" xmlns="http://www.w3.org/2000/svg">
  <defs>
    <path d="M0 0L320 0L320 320L0 320L0 0Z" id="path_1" />
    <clipPath id="clip_1">
      <use xlink:href="#path_1" />
    </clipPath>
  </defs>
  <g id="Artboard" clip-path="url(#clip_1)">
    <path d="M0 0L320 0L320 320L0 320L0 0Z" id="Artboard" fill="none" fill-rule="evenodd" stroke="none" />
    <path d="M63.999 0L256.001 0Q257.572 0 259.141 0.0770896Q260.71 0.154179 262.274 0.308173Q263.838 0.462166 265.392 0.692692Q266.946 0.923219 268.487 1.22972Q270.027 1.53623 271.551 1.91797Q273.075 2.29971 274.579 2.75578Q276.082 3.21184 277.562 3.74112Q279.041 4.2704 280.492 4.87163Q281.944 5.47286 283.364 6.14459Q284.784 6.81632 286.17 7.55692Q287.555 8.29753 288.903 9.10523Q290.251 9.91293 291.557 10.7858Q292.863 11.6586 294.125 12.5945Q295.387 13.5304 296.602 14.5271Q297.816 15.5238 298.98 16.5789Q300.144 17.6339 301.255 18.7449Q302.366 19.8558 303.421 21.0199Q304.476 22.184 305.473 23.3985Q306.47 24.6129 307.405 25.8748Q308.341 27.1367 309.214 28.4431Q310.087 29.7494 310.895 31.0969Q311.702 32.4445 312.443 33.8301Q313.184 35.2157 313.855 36.6359Q314.527 38.0561 315.128 39.5076Q315.73 40.9591 316.259 42.4384Q316.788 43.9176 317.244 45.4211Q317.7 46.9245 318.082 48.4485Q318.464 49.9725 318.77 51.5134Q319.077 53.0543 319.307 54.6084Q319.538 56.1625 319.692 57.726Q319.846 59.2895 319.923 60.8587Q320 62.4279 320 63.999L320 256.001Q320 257.572 319.923 259.141Q319.846 260.71 319.692 262.274Q319.538 263.838 319.307 265.392Q319.077 266.946 318.77 268.487Q318.464 270.027 318.082 271.551Q317.7 273.075 317.244 274.579Q316.788 276.082 316.259 277.562Q315.73 279.041 315.128 280.492Q314.527 281.944 313.855 283.364Q313.184 284.784 312.443 286.17Q311.702 287.555 310.895 288.903Q310.087 290.251 309.214 291.557Q308.341 292.863 307.405 294.125Q306.47 295.387 305.473 296.602Q304.476 297.816 303.421 298.98Q302.366 300.144 301.255 301.255Q300.144 302.366 298.98 303.421Q297.816 304.476 296.602 305.473Q295.387 306.47 294.125 307.405Q292.863 308.341 291.557 309.214Q290.251 310.087 288.903 310.895Q287.555 311.702 286.17 312.443Q284.784 313.184 283.364 313.855Q281.944 314.527 280.492 315.128Q279.041 315.73 277.562 316.259Q276.082 316.788 274.579 317.244Q273.075 317.7 271.551 318.082Q270.027 318.464 268.487 318.77Q266.946 319.077 265.392 319.307Q263.838 319.538 262.274 319.692Q260.71 319.846 259.141 319.923Q257.572 320 256.001 320L63.999 320Q62.4279 320 60.8587 319.923Q59.2895 319.846 57.726 319.692Q56.1625 319.538 54.6084 319.307Q53.0543 319.077 51.5134 318.77Q49.9725 318.464 48.4485 318.082Q46.9245 317.7 45.4211 317.244Q43.9176 316.788 42.4384 316.259Q40.9591 315.73 39.5076 315.128Q38.0561 314.527 36.6359 313.855Q35.2157 313.184 33.8301 312.443Q32.4445 311.702 31.0969 310.895Q29.7494 310.087 28.4431 309.214Q27.1367 308.341 25.8748 307.405Q24.6129 306.47 23.3985 305.473Q22.184 304.476 21.0199 303.421Q19.8558 302.366 18.7449 301.255Q17.6339 300.144 16.5789 298.98Q15.5238 297.816 14.5271 296.602Q13.5304 295.387 12.5945 294.125Q11.6586 292.863 10.7858 291.557Q9.91293 290.251 9.10523 288.903Q8.29753 287.555 7.55692 286.17Q6.81632 284.784 6.14459 283.364Q5.47286 281.944 4.87163 280.492Q4.2704 279.041 3.74112 277.562Q3.21184 276.082 2.75578 274.579Q2.29971 273.075 1.91797 271.551Q1.53623 270.027 1.22972 268.487Q0.923219 266.946 0.692692 265.392Q0.462166 263.838 0.308173 262.274Q0.154179 260.71 0.0770896 259.141Q0 257.572 0 256.001L0 63.999Q0 62.4279 0.0770896 60.8587Q0.154179 59.2895 0.308173 57.726Q0.462166 56.1625 0.692692 54.6084Q0.923219 53.0543 1.22972 51.5134Q1.53623 49.9725 1.91797 48.4485Q2.29971 46.9245 2.75578 45.4211Q3.21184 43.9176 3.74112 42.4384Q4.2704 40.9591 4.87163 39.5076Q5.47286 38.0561 6.14459 36.6359Q6.81632 35.2157 7.55692 33.8301Q8.29753 32.4445 9.10523 31.0969Q9.91293 29.7494 10.7858 28.4431Q11.6586 27.1367 12.5945 25.8748Q13.5304 24.6129 14.5271 23.3985Q15.5238 22.184 16.5789 21.0199Q17.6339 19.8558 18.7449 18.7449Q19.8558 17.6339 21.0199 16.5789Q22.184 15.5238 23.3985 14.5271Q24.6129 13.5304 25.8748 12.5945Q27.1367 11.6586 28.4431 10.7858Q29.7494 9.91293 31.0969 9.10523Q32.4445 8.29753 33.8301 7.55692Q35.2157 6.81632 36.6359 6.14459Q38.0561 5.47286 39.5076 4.87163Q40.9591 4.2704 42.4384 3.74112Q43.9176 3.21184 45.4211 2.75578Q46.9245 2.29971 48.4485 1.91797Q49.9725 1.53623 51.5134 1.22972Q53.0543 0.923219 54.6084 0.692692Q56.1625 0.462166 57.726 0.308173Q59.2895 0.154179 60.8587 0.0770896Q62.4279 0 63.999 0L63.999 0Z" id="Rectangle-2" fill="#000000" fill-rule="evenodd" stroke="none" />
    <path d="M190.209 309.999C109.992 310.231 -37.8981 269.268 179.833 13.9833" id="Vector-2-Union" fill="none" fill-rule="evenodd" stroke="#FF7B00" stroke-width="10" stroke-linecap="round" stroke-linejoin="round" />
    <path d="M210.95 167.682C210.95 167.682 181.789 179.822 160.101 162.091" id="Vector-5" fill="none" fill-rule="evenodd" stroke="#FF7B00" stroke-width="6" stroke-linecap="round" stroke-linejoin="round" />
    <path d="M213.843 271.073L213.843 264.931L151.715 264.931L151.715 271.073L213.843 271.073Z" id="Rectangle-Copy" fill="none" fill-rule="evenodd" stroke="#FF7B00" stroke-width="6" stroke-linecap="round" stroke-linejoin="round" />
    <path d="M204.511 264.775L204.511 169.714" id="Line" fill="none" fill-rule="evenodd" stroke="#FF7B00" stroke-width="6" stroke-linecap="round" stroke-linejoin="round" />
    <path d="M181.169 115.79L181.169 65.8267" id="Vector-4-Copy-3" fill="none" fill-rule="evenodd" stroke="#FF7B00" stroke-width="6" stroke-linecap="round" stroke-linejoin="round" />
    <path d="M173.12 117.655L173.12 76.5753" id="Vector-4-Copy-4" fill="none" fill-rule="evenodd" stroke="#FF7B00" stroke-width="6" stroke-linecap="round" stroke-linejoin="round" />
    <path d="M165.071 120.076L165.071 88.8592" id="Vector-4-Copy-5" fill="none" fill-rule="evenodd" stroke="#FF7B00" stroke-width="6" stroke-linecap="round" stroke-linejoin="round" />
    <path d="M188.413 114.963L188.413 55.0782" id="Vector-4-Copy-2" fill="none" fill-rule="evenodd" stroke="#FF7B00" stroke-width="6" stroke-linecap="round" stroke-linejoin="round" />
    <path d="M222.219 279.262L222.219 271.073L143.339 271.073L143.339 279.262L222.219 279.262Z" id="Rectangle" fill="none" fill-rule="evenodd" stroke="#FF7B00" stroke-width="6" stroke-linecap="round" stroke-linejoin="round" />
    <path d="M196.462 247.016L196.462 172.175" id="Line-Copy" fill="none" fill-rule="evenodd" stroke="#FF7B00" stroke-width="6" stroke-linecap="round" stroke-linejoin="round" />
    <path d="M188.413 232.685L188.413 172.8" id="Line-Copy-2" fill="none" fill-rule="evenodd" stroke="#FF7B00" stroke-width="6" stroke-linecap="round" stroke-linejoin="round" />
    <path d="M180.364 216.818L180.364 171.777" id="Line-Copy-3" fill="none" fill-rule="evenodd" stroke="#FF7B00" stroke-width="6" stroke-linecap="round" stroke-linejoin="round" />
    <path d="M172.315 206.07L172.315 169.072" id="Line-Copy-4" fill="none" fill-rule="evenodd" stroke="#FF7B00" stroke-width="6" stroke-linecap="round" stroke-linejoin="round" />
    <path d="M164.267 195.448L164.267 165.281" id="Line-Copy-5" fill="none" fill-rule="evenodd" stroke="#FF7B00" stroke-width="6" stroke-linecap="round" stroke-linejoin="round" />
    <path d="M196.462 114.963L196.462 35.6285" id="Vector-4-Copy" fill="none" fill-rule="evenodd" stroke="#FF7B00" stroke-width="6" stroke-linecap="round" stroke-linejoin="round" />
    <path d="M204.511 117.522L204.511 12" id="Vector-4" fill="none" fill-rule="evenodd" stroke="#FF7B00" stroke-width="6" stroke-linecap="round" stroke-linejoin="round" />
    <path d="M210.95 119.569C210.95 119.569 188.328 109.07 160.359 122.232" id="Vector-6" fill="none" fill-rule="evenodd" stroke="#FF7B00" stroke-width="6" stroke-linecap="round" stroke-linejoin="round" />
    <path d="M189.991 155.398C204.046 155.439 209.189 148.863 209.084 143.843C208.979 138.823 203.786 129.976 187.949 130.062C172.114 130.15 161.441 136.19 161.61 147.834C161.779 159.478 175.553 166.107 189.647 166.248C203.74 166.39 222.754 158.905 222.754 144.262C222.754 129.619 207.807 121.511 188.723 121.396C169.639 121.281 147.945 131.47 147.917 147.457C147.888 163.444 154.654 163.064 154.676 184.021C154.698 204.978 137.96 211.078 123.341 210.711C108.722 210.345 99.5047 201.272 99.8746 194.297C100.244 187.323 106.62 180.294 119.742 180.43C132.864 180.565 137.11 186.055 136.9 191.226C136.689 196.397 130.767 200.505 123.216 199.928" id="Vector-7" fill="none" fill-rule="evenodd" stroke="#FF7B00" stroke-width="6" stroke-linecap="round" stroke-linejoin="round" />
  </g>
</svg>